HIERARCHY
ROOT root
{
	OFFSET	0	260	24
	CHANNELS 6  Xposition Yposition Zposition Xrotation Yrotation Zrotation
	JOINT spine_3
	{
		OFFSET	0	81.6	10.2
		CHANNELS 3  Xrotation Yrotation Zrotation
		JOINT spine_4
		{
			OFFSET	0	110.4	14.6
			CHANNELS 3  Xrotation Yrotation Zrotation
			JOINT neck_1
			{
				OFFSET	0	71.8	-50.3
				CHANNELS 3  Xrotation Yrotation Zrotation
				JOINT neck_2
				{
					OFFSET	0	86.2	-25.8
					CHANNELS 3  Xrotation Yrotation Zrotation
					JOINT head_ee
					{
						OFFSET	0	179.8	-8.7
						CHANNELS 3  Xrotation Yrotation Zrotation
						End Site
						{
							OFFSET	1	0	0
						}
					}
				}
			}
			JOINT left_clavicle
			{
				OFFSET	-43.2	22.4	-70.8
				CHANNELS 3  Xrotation Yrotation Zrotation
				JOINT left_shoulder
				{
					OFFSET	-93.9	-5.79999	48.7
					CHANNELS 3  Xrotation Yrotation Zrotation
					JOINT left_elbow
					{
						OFFSET	-291.4	-30.8	15.2
						CHANNELS 3  Xrotation Yrotation Zrotation
						JOINT left_lowarm_twist
						{
							OFFSET	-110.7	-3.89999	13.6
							CHANNELS 3  Xrotation Yrotation Zrotation
							JOINT left_hand
							{
								OFFSET	-110.7	-3.89999	13.6
								CHANNELS 3  Xrotation Yrotation Zrotation
								JOINT left_ee
								{
									OFFSET	-80.8	-5.10001	12.1
									CHANNELS 3  Xrotation Yrotation Zrotation
									End Site
									{
										OFFSET	1	0	0
									}
								}
							}
						}
					}
				}
			}
			JOINT right_clavicle
			{
				OFFSET	43.2	22.4	-70.8
				CHANNELS 3  Xrotation Yrotation Zrotation
				JOINT right_shoulder
				{
					OFFSET	93.9	-5.79999	48.7
					CHANNELS 3  Xrotation Yrotation Zrotation
					JOINT right_elbow
					{
						OFFSET	291.4	-30.8	15.2
						CHANNELS 3  Xrotation Yrotation Zrotation
						JOINT right_lowarm_twist
						{
							OFFSET	110.7	-3.89999	13.6
							CHANNELS 3  Xrotation Yrotation Zrotation
							JOINT right_hand
							{
								OFFSET	110.7	-3.89999	13.6
								CHANNELS 3  Xrotation Yrotation Zrotation
								JOINT right_ee
								{
									OFFSET	80.8	-5.10001	12.1
									CHANNELS 3  Xrotation Yrotation Zrotation
									End Site
									{
										OFFSET	1	0	0
									}
								}
							}
						}
					}
				}
			}
		}
	}
	JOINT spine_2
	{
		OFFSET	0	-124.9	-9.1
		CHANNELS 3  Xrotation Yrotation Zrotation
		JOINT spine_1
		{
			OFFSET	0	-112	10
			CHANNELS 3  Xrotation Yrotation Zrotation
			JOINT left_hip
			{
				OFFSET	-82.8	-137.5	0.300001
				CHANNELS 3  Xrotation Yrotation Zrotation
				JOINT left_knee
				{
					OFFSET	-28.2	-396.7	2.2
					CHANNELS 3  Xrotation Yrotation Zrotation
					JOINT left_ankle
					{
						OFFSET	-11.7	-411.3	35.4
						CHANNELS 3  Xrotation Yrotation Zrotation
						JOINT left_toes
						{
							OFFSET	0	-60	-88.6
							CHANNELS 3  Xrotation Yrotation Zrotation
							JOINT left_foot_ee
							{
								OFFSET	-22.5	-16.5	-42.2
								CHANNELS 3  Xrotation Yrotation Zrotation
								End Site
								{
									OFFSET	1	0	0
								}
							}
						}
					}
				}
			}
			JOINT right_hip
			{
				OFFSET	82.8	-137.5	0.300001
				CHANNELS 3  Xrotation Yrotation Zrotation
				JOINT right_knee
				{
					OFFSET	28.2	-396.7	2.2
					CHANNELS 3  Xrotation Yrotation Zrotation
					JOINT right_ankle
					{
						OFFSET	11.7	-411.3	35.4
						CHANNELS 3  Xrotation Yrotation Zrotation
						JOINT right_toes
						{
							OFFSET	0	-60	-88.6
							CHANNELS 3  Xrotation Yrotation Zrotation
							JOINT right_foot_ee
							{
								OFFSET	22.5	-16.5	-42.2
								CHANNELS 3  Xrotation Yrotation Zrotation
								End Site
								{
									OFFSET	1	0	0
								}
							}
						}
					}
				}
			}
		}
	}
}
MOTION
Frames: 9
Frame Time: 0.02
1372.05 701.618 -1475.22 -9.32521779632 41.382216295 7.02438269507 2.90327 -0.337484 -1.40796 2.90094 -0.55559 -1.33701 -9.80542 10.3911 4.44685 -9.83845 16.5474 6.90228 -0.0 0.0 -0.0 8.9621 -5.80787 17.6241 -16.3796 -18.7157 46.7573 2.24199 -47.9936 0.998152 -1.13245 -0.0412755 0.138726 1.9166 -17.6258 5.3005 -0.0 0.0 -0.0 10.3668 -7.75756 -19.7967 -63.7432 39.3466 -44.1929 0.547213 15.167 -0.0728542 -85.2408 8.48202 -5.1786 -3.91326 -13.7297 19.2362 0.0 0.0 0.0 -2.9027 0.490608 1.36219 -2.90355 0.576286 1.32822 0.231163 -5.29459 -4.46791 -18.8844 0.307245 2.86859 39.8459 17.4792 -4.96098 -10.812 0.0 0.0 -0.0 0.0 -0.0 37.789 35.6845 -2.79033 5.97327 0.291645 0.869548 -7.43573 -21.447 -1.13254 -11.8438 0.0 0.0 0.0 0.0 0.0 
1356.21751036 697.707 -1496.25782479 -10.3169597546 42.2159801303 8.12507541871 2.73335 -0.29913 -1.20195 2.73166 -0.48519 -1.13964 -9.58794 10.3322 4.31013 -9.61776 16.4971 6.72577 -0.0 0.0 -0.0 8.82083 -6.988 17.3205 -17.3415 -18.5689 46.5016 2.20427 -47.51 0.970227 -1.22351 -0.0447131 0.149845 2.0128 -17.8655 5.83372 -0.0 0.0 -0.0 10.6093 -8.2278 -20.2142 -63.7512 39.4395 -44.2612 0.539792 14.9706 -0.0709248 -85.0264 8.45522 -5.18393 -3.865 -13.2729 19.1885 0.0 0.0 0.0 -2.73293 0.436657 1.1591 -2.73354 0.509524 1.12897 -0.674541 -5.85924 -5.15588 -18.8883 0.307211 2.86918 39.1551 17.8473 -4.90438 -11.1075 0.0 0.0 -0.0 0.0 -0.0 38.0731 35.6643 -3.79385 5.11799 0.244333 0.746937 -9.22585 -21.1762 -1.40733 -12.1153 0.0 0.0 0.0 0.0 0.0 
1356.50538839 697.707 -1496.47141995 -10.1926533402 41.4483863391 7.93869958922 2.73335 -0.29913 -1.20195 2.73166 -0.48519 -1.13964 -9.58794 10.3322 4.31013 -9.61776 16.4971 6.72577 -0.0 0.0 -0.0 8.82083 -6.988 17.3205 -17.3415 -18.5689 46.5016 2.20427 -47.51 0.970227 -1.22351 -0.0447131 0.149845 2.0128 -17.8655 5.83372 -0.0 0.0 -0.0 10.6093 -8.2278 -20.2142 -63.7512 39.4395 -44.2612 0.539792 14.9706 -0.0709248 -85.0264 8.45522 -5.18393 -3.865 -13.2729 19.1885 0.0 0.0 0.0 -2.73293 0.436657 1.1591 -2.73354 0.509524 1.12897 -0.674541 -5.85924 -5.15588 -18.8883 0.307211 2.86918 39.1551 17.8473 -4.90438 -11.1075 0.0 0.0 -0.0 0.0 -0.0 38.0731 35.6643 -3.79385 5.11799 0.244333 0.746937 -9.22585 -21.1762 -1.40733 -12.1153 0.0 0.0 0.0 0.0 0.0 
1356.81751411 697.707 -1496.69624673 -10.0645221627 40.6243539966 7.74354287345 2.73335 -0.29913 -1.20195 2.73166 -0.48519 -1.13964 -9.58794 10.3322 4.31013 -9.61776 16.4971 6.72577 -0.0 0.0 -0.0 8.82083 -6.988 17.3205 -17.3415 -18.5689 46.5016 2.20427 -47.51 0.970227 -1.22351 -0.0447131 0.149845 2.0128 -17.8655 5.83372 -0.0 0.0 -0.0 10.6093 -8.2278 -20.2142 -63.7512 39.4395 -44.2612 0.539792 14.9706 -0.0709248 -85.0264 8.45522 -5.18393 -3.865 -13.2729 19.1885 0.0 0.0 0.0 -2.73293 0.436657 1.1591 -2.73354 0.509524 1.12897 -0.674541 -5.85924 -5.15588 -18.8883 0.307211 2.86918 39.1551 17.8473 -4.90438 -11.1075 0.0 0.0 -0.0 0.0 -0.0 38.0731 35.6643 -3.79385 5.11799 0.244333 0.746937 -9.22585 -21.1762 -1.40733 -12.1153 0.0 0.0 0.0 0.0 0.0 
1357.12599026 697.707 -1496.91174344 -9.94421649554 39.8179529516 7.55724081008 2.73335 -0.29913 -1.20195 2.73166 -0.48519 -1.13964 -9.58794 10.3322 4.31013 -9.61776 16.4971 6.72577 -0.0 0.0 -0.0 8.82083 -6.988 17.3205 -17.3415 -18.5689 46.5016 2.20427 -47.51 0.970227 -1.22351 -0.0447131 0.149845 2.0128 -17.8655 5.83372 -0.0 0.0 -0.0 10.6093 -8.2278 -20.2142 -63.7512 39.4395 -44.2612 0.539792 14.9706 -0.0709248 -85.0264 8.45522 -5.18393 -3.865 -13.2729 19.1885 0.0 0.0 0.0 -2.73293 0.436657 1.1591 -2.73354 0.509524 1.12897 -0.674541 -5.85924 -5.15588 -18.8883 0.307211 2.86918 39.1551 17.8473 -4.90438 -11.1075 0.0 0.0 -0.0 0.0 -0.0 38.0731 35.6643 -3.79385 5.11799 0.244333 0.746937 -9.22585 -21.1762 -1.40733 -12.1153 0.0 0.0 0.0 0.0 0.0 
1357.53363038 697.707 -1497.18662953 -9.79416360401 38.7638689029 7.32029727397 2.73335 -0.29913 -1.20195 2.73166 -0.48519 -1.13964 -9.58794 10.3322 4.31013 -9.61776 16.4971 6.72577 -0.0 0.0 -0.0 8.82083 -6.988 17.3205 -17.3415 -18.5689 46.5016 2.20427 -47.51 0.970227 -1.22351 -0.0447131 0.149845 2.0128 -17.8655 5.83372 -0.0 0.0 -0.0 10.6093 -8.2278 -20.2142 -63.7512 39.4395 -44.2612 0.539792 14.9706 -0.0709248 -85.0264 8.45522 -5.18393 -3.865 -13.2729 19.1885 0.0 0.0 0.0 -2.73293 0.436657 1.1591 -2.73354 0.509524 1.12897 -0.674541 -5.85924 -5.15588 -18.8883 0.307211 2.86918 39.1551 17.8473 -4.90438 -11.1075 0.0 0.0 -0.0 0.0 -0.0 38.0731 35.6643 -3.79385 5.11799 0.244333 0.746937 -9.22585 -21.1762 -1.40733 -12.1153 0.0 0.0 0.0 0.0 0.0 
1345.55392703 699.704 -1519.75584222 -10.2934116763 38.5530591479 7.8851712836 2.7185 -0.242101 -1.02133 2.71727 -0.400355 -0.970288 -6.31904 10.3847 1.7814 -6.29311 17.9406 3.79487 -0.0 0.0 -0.0 9.43012 -7.02537 18.6197 -17.9022 -18.6612 45.7702 1.89605 -43.2011 0.750778 -1.89823 -0.0707384 0.232067 2.06132 -17.885 6.14941 -0.0 0.0 -0.0 10.7276 -7.89534 -20.481 -62.1033 41.1065 -45.5541 0.426044 11.9176 -0.0444695 -85.1467 8.47026 -5.18095 -3.66427 -11.9552 18.6202 0.0 0.0 0.0 -2.7182 0.359548 0.986137 -2.71864 0.421567 0.961263 -0.943054 -5.78618 -5.15496 -18.6879 0.308946 2.83847 37.2824 18.4315 -4.73761 -11.1998 0.0 0.0 -0.0 0.0 -0.0 38.1193 35.4612 -4.43229 4.65019 0.219234 0.679584 -9.01825 -20.7312 -1.37294 -11.2517 0.0 0.0 0.0 0.0 0.0 
1346.90494362 699.704 -1520.53235223 -10.0580913033 36.857208439 7.50045112913 2.7185 -0.242101 -1.02133 2.71727 -0.400355 -0.970288 -6.31904 10.3847 1.7814 -6.29311 17.9406 3.79487 -0.0 0.0 -0.0 9.43012 -7.02537 18.6197 -17.9022 -18.6612 45.7702 1.89605 -43.2011 0.750778 -1.89823 -0.0707384 0.232067 2.06132 -17.885 6.14941 -0.0 0.0 -0.0 10.7276 -7.89534 -20.481 -62.1033 41.1065 -45.5541 0.426044 11.9176 -0.0444695 -85.1467 8.47026 -5.18095 -3.66427 -11.9552 18.6202 0.0 0.0 0.0 -2.7182 0.359548 0.986137 -2.71864 0.421567 0.961263 -0.943054 -5.78618 -5.15496 -18.6879 0.308946 2.83847 37.2824 18.4315 -4.73761 -11.1998 0.0 0.0 -0.0 0.0 -0.0 38.1193 35.4612 -4.43229 4.65019 0.219234 0.679584 -9.01825 -20.7312 -1.37294 -11.2517 0.0 0.0 0.0 0.0 0.0 
1348.48075166 699.704 -1521.37163765 -9.81166119858 34.9127291285 7.08009836795 2.7185 -0.242101 -1.02133 2.71727 -0.400355 -0.970288 -6.31904 10.3847 1.7814 -6.29311 17.9406 3.79487 -0.0 0.0 -0.0 9.43012 -7.02537 18.6197 -17.9022 -18.6612 45.7702 1.89605 -43.2011 0.750778 -1.89823 -0.0707384 0.232067 2.06132 -17.885 6.14941 -0.0 0.0 -0.0 10.7276 -7.89534 -20.481 -62.1033 41.1065 -45.5541 0.426044 11.9176 -0.0444695 -85.1467 8.47026 -5.18095 -3.66427 -11.9552 18.6202 0.0 0.0 0.0 -2.7182 0.359548 0.986137 -2.71864 0.421567 0.961263 -0.943054 -5.78618 -5.15496 -18.6879 0.308946 2.83847 37.2824 18.4315 -4.73761 -11.1998 0.0 0.0 -0.0 0.0 -0.0 38.1193 35.4612 -4.43229 4.65019 0.219234 0.679584 -9.01825 -20.7312 -1.37294 -11.2517 0.0 0.0 0.0 0.0 0.0 
